<?xml version="1.0"?>
<!DOCTYPE svg PUBLIC "-//W3C//DTD SVG 1.1//EN" "http://www.w3.org/Graphics/SVG/1.1/DTD/svg11.dtd">
<svg width="30px" height="35px" xmlns="http://www.w3.org/2000/svg" version="1.1">
    <path d="M0,9 l0,1 l13,7.5 l0,-1 z" fill="#000" style="fill-opacity: 0.09"/>
    <path d="M30,9 l0,1 l-13,7.5 l0,-1 z" fill="#000" style="fill-opacity: 0.09"/>
    <path d="M14,0 l0,1 l-13,7.5 l0,-1 z" fill="#000" style="fill-opacity: 0.09"/>
    <path d="M16,0 l0,1 l13,7.5 l0,-1 z" fill="#000" style="fill-opacity: 0.09"/>
    <path d="M14,18 l0,1 l-13,7.5 l0,-1 z" fill="#000" style="fill-opacity: 0.09"/>
	<path d="M16,18 l0,1 l13,7.5 l0,-1 z" fill="#000" style="fill-opacity: 0.09"/>
	
	<path d="M0,25 l13,-7.5 l0,1 l-13,7.5 z" fill="#FFF" style="fill-opacity: 0.18"/>
	<path d="M30,25 l-13,-7.5 l0,1 l13,7.5 z" fill="#FFF" style="fill-opacity: 0.18"/>
	<path d="M14,16 l-13,-7.5 l0,1 l13,7.5 z" fill="#FFF" style="fill-opacity: 0.18"/>
	<path d="M16,16 l13,-7.5 l0,1 l-13,7.5 z" fill="#FFF" style="fill-opacity: 0.18"/>
	<path d="M14,34 l-13,-7.5 l0,1 l13,7.5 z" fill="#FFF" style="fill-opacity: 0.18"/>
	<path d="M16,34 l13,-7.5 l0,1 l-13,7.5 z" fill="#FFF" style="fill-opacity: 0.18"/>
	
	<path d="M0,10 l0,15 l13,-7.5 l-13,-7.5 l1,1.73 l10.27,5.77 l-10.27,5.77 l0,-11.54 z" fill="#000" style="fill-opacity: 0.28"/>
	<path d="M30,10 l0,15 l-13,-7.5 l13,-7.5 l-1,1.73 l-10.27,5.77 l10.27,5.77 l0,-11.54 z" fill="#000" style="fill-opacity: 0.28"/>
	<path d="M14,1 l0,15 l-13,-7.5 l13,-7.5 l-1,1.73 l-10.27,5.77 l10.27,5.77 l0,-11.54 z" fill="#000" style="fill-opacity: 0.28"/>
	<path d="M16,1 l0,15 l13,-7.5 l-13,-7.5 l1,1.73 l10.27,5.77 l-10.27,5.77 l0,-11.54 z" fill="#000" style="fill-opacity: 0.28"/>
	<path d="M14,19 l0,15 l-13,-7.5 l13,-7.5 l-1,1.73 l-10.27,5.77 l10.27,5.77 l0,-11.54 z" fill="#000" style="fill-opacity: 0.28"/>
	<path d="M16,19 l0,15 l13,-7.5 l-13,-7.5 l1,1.73 l10.27,5.77 l-10.27,5.77 l0,-11.54 z" fill="#000" style="fill-opacity: 0.28"/>
	
	<path d="M1,11.73 l0,11.54 l10.27,-5.77 z" fill="#000" style="fill-opacity: 0.12"/>
	<path d="M17,2.73 l0,11.54 l10.27,-5.77 z" fill="#000" style="fill-opacity: 0.12"/>
	<path d="M17,20.73 l0,11.54 l10.27,-5.77 z" fill="#000" style="fill-opacity: 0.12"/>
	<path d="M29,11.73 l0,11.54 l-10.27,-5.77 z" fill="#000" style="fill-opacity: 0.12"/>
	<path d="M13,2.73 l0,11.54 l-10.27,-5.77 z" fill="#000" style="fill-opacity: 0.12"/>
	<path d="M13,20.73 l0,11.54 l-10.27,-5.77 z" fill="#000" style="fill-opacity: 0.12"/>	
</svg>