<?xml version="1.0" encoding="UTF-8" standalone="no"?>
<!-- Created with Inkscape (http://www.inkscape.org/) -->

<svg
   xmlns:dc="http://purl.org/dc/elements/1.1/"
   xmlns:cc="http://creativecommons.org/ns#"
   xmlns:rdf="http://www.w3.org/1999/02/22-rdf-syntax-ns#"
   xmlns:svg="http://www.w3.org/2000/svg"
   xmlns="http://www.w3.org/2000/svg"
   xmlns:xlink="http://www.w3.org/1999/xlink"
   xmlns:sodipodi="http://sodipodi.sourceforge.net/DTD/sodipodi-0.dtd"
   xmlns:inkscape="http://www.inkscape.org/namespaces/inkscape"
   width="566.92914"
   height="566.92914"
   id="svg2"
   version="1.1"
   inkscape:version="0.47 r22583"
   sodipodi:docname="montage-logo-flat-colors.pdf">
  <defs
     id="defs4">
    <linearGradient
       id="linearGradient3667">
      <stop
         style="stop-color:#7b7a7b;stop-opacity:1;"
         offset="0"
         id="stop3669" />
      <stop
         style="stop-color:#525252;stop-opacity:1;"
         offset="1"
         id="stop3671" />
    </linearGradient>
    <linearGradient
       id="linearGradient3659">
      <stop
         style="stop-color:#32c2f6;stop-opacity:1;"
         offset="0"
         id="stop3661" />
      <stop
         style="stop-color:#2188ad;stop-opacity:1;"
         offset="1"
         id="stop3663" />
    </linearGradient>
    <inkscape:perspective
       sodipodi:type="inkscape:persp3d"
       inkscape:vp_x="0 : 526.18109 : 1"
       inkscape:vp_y="0 : 1000 : 0"
       inkscape:vp_z="744.09448 : 526.18109 : 1"
       inkscape:persp3d-origin="372.04724 : 350.78739 : 1"
       id="perspective10" />
    <inkscape:perspective
       id="perspective2824"
       inkscape:persp3d-origin="0.5 : 0.33333333 : 1"
       inkscape:vp_z="1 : 0.5 : 1"
       inkscape:vp_y="0 : 1000 : 0"
       inkscape:vp_x="0 : 0.5 : 1"
       sodipodi:type="inkscape:persp3d" />
    <linearGradient
       inkscape:collect="always"
       xlink:href="#linearGradient3659"
       id="linearGradient3665"
       x1="61.054001"
       y1="546.80756"
       x2="61.054001"
       y2="903.17749"
       gradientUnits="userSpaceOnUse" />
    <linearGradient
       inkscape:collect="always"
       xlink:href="#linearGradient3667"
       id="linearGradient3673"
       x1="61.420593"
       y1="939.82861"
       x2="61.420593"
       y2="991.30688"
       gradientUnits="userSpaceOnUse" />
  </defs>
  <sodipodi:namedview
     id="base"
     pagecolor="#ffffff"
     bordercolor="#666666"
     borderopacity="1.0"
     inkscape:pageopacity="0.0"
     inkscape:pageshadow="2"
     inkscape:zoom="0.64036702"
     inkscape:cx="264.53534"
     inkscape:cy="269.48992"
     inkscape:document-units="px"
     inkscape:current-layer="layer1"
     showgrid="false"
     units="px"
     inkscape:window-width="1267"
     inkscape:window-height="746"
     inkscape:window-x="22"
     inkscape:window-y="22"
     inkscape:window-maximized="0" />
  <metadata
     id="metadata7">
    <rdf:RDF>
      <cc:Work
         rdf:about="">
        <dc:format>image/svg+xml</dc:format>
        <dc:type
           rdf:resource="http://purl.org/dc/dcmitype/StillImage" />
        <dc:title></dc:title>
      </cc:Work>
    </rdf:RDF>
  </metadata>
  <g
     inkscape:label="Capa 1"
     inkscape:groupmode="layer"
     id="layer1"
     transform="translate(0,-485.43178)">
    <path
       id="path2830"
       style="fill:url(#linearGradient3665);fill-opacity:1;fill-rule:nonzero;stroke:none"
       d="m 149.88068,546.81105 c -13.21472,0.13489 -26.52527,4.22424 -38.03834,12.58911 -29.468372,21.40503 -36.007684,62.65075 -14.603872,92.11427 2.561038,3.52293 5.423572,6.72546 8.494872,9.58251 0,0 -12.564697,119.51905 -12.564697,119.51905 -17.18995,10.2832 -29.493412,28.27147 -31.748662,49.72656 -3.804325,36.21581 22.482912,68.6621 58.707279,72.46825 36.22315,3.8086 68.65967,-22.4829 72.47315,-58.70361 2.25036,-21.4624 -6.05835,-41.58935 -20.73304,-55.23681 0,0 7.3114,-69.48853 7.3114,-69.48853 0,0 41.04492,56.51001 41.04492,56.51001 -8.09265,26.21827 0.84352,55.7959 24.27674,72.82227 29.46471,21.40625 70.70556,14.86083 92.11548,-14.60449 12.67456,-17.44874 15.55663,-39.02344 9.67285,-58.17628 0,0 41.04492,-56.52587 41.04492,-56.52587 0,0 7.31201,69.46289 7.31201,69.46289 -14.67407,13.64746 -22.9834,33.77441 -20.73242,55.23681 3.80737,36.22071 36.2732,62.51221 72.49756,58.70361 36.22436,-3.80615 62.49024,-36.25244 58.68653,-72.46825 -2.26075,-21.45509 -14.56299,-39.44336 -31.74805,-49.72656 0,0 -12.5647,-119.51905 -12.5647,-119.51905 14.67407,-13.64135 22.98828,-33.76893 20.72753,-55.23376 -3.80371,-36.22498 -36.26952,-62.48963 -72.49267,-58.68103 -36.22559,3.80249 -62.49145,36.2445 -58.68164,72.47314 0.4602,4.3457 1.30859,8.54004 2.54516,12.5592 0,0 -69.60143,95.82276 -69.60143,95.82276 0,0 -69.6521,-95.86242 -69.6521,-95.86242 5.8789,-19.14429 3.00781,-40.72572 -9.66675,-58.17567 -13.04504,-17.95655 -33.45825,-27.3993 -54.08203,-27.18811 z m -0.41565,21.98059 c 0.57068,-0.014 1.14319,-0.005 1.71386,0 13.38684,0.18555 26.51184,6.45569 34.9823,18.11646 10.60303,14.59045 10.93994,33.49365 2.36389,48.10851 0,0 71.5973,98.57423 71.5973,98.57423 -10.87097,4.05945 -20.78309,11.02477 -28.46559,20.6842 0,0 -71.61803,-98.57055 -71.61803,-98.57055 -16.54297,3.62854 -34.41407,-2.52564 -45.00428,-17.10084 -14.27246,-19.64477 -9.92797,-47.13867 9.71741,-61.41235 7.4823,-5.43153 16.11817,-8.17871 24.71314,-8.39966 z m 266.35498,0 c 22.28637,-0.0794 41.44653,16.71997 43.8269,39.36219 1.88598,17.93212 -7.29125,34.48486 -22.02637,42.854 0,0 15.18067,144.2981 15.18067,144.2981 16.14746,5.11962 28.56567,19.39208 30.44556,37.32177 2.54027,24.15039 -14.97436,45.77636 -39.1211,48.31543 -24.15528,2.54638 -45.802,-14.98047 -48.34229,-39.12109 -1.88354,-17.93701 7.29249,-34.48975 22.03125,-42.86378 0,0 -15.15625,-144.29687 -15.15625,-144.29687 -16.156,-5.12085 -28.56566,-19.38904 -30.4541,-37.32178 -2.54272,-24.151 14.97315,-45.77636 39.13086,-48.31176 1.50758,-0.16052 2.99562,-0.23071 4.48487,-0.23621 z m -264.96643,24.8993 c -3.96972,-0.0555 -7.99866,1.14624 -11.45264,3.65722 -8.51318,6.18408 -10.39856,18.09814 -4.21387,26.61194 6.18836,8.51013 18.10304,10.3949 26.61072,4.20533 8.51624,-6.17982 10.39978,-18.09265 4.21143,-26.60768 -3.67005,-5.05676 -9.35181,-7.78809 -15.15564,-7.86681 z m 265.04211,0 c -0.6482,0.004 -1.31958,0.0494 -1.97021,0.1135 -10.46997,1.10351 -18.03711,10.47973 -16.9397,20.93994 1.09741,10.46875 10.47974,18.06701 20.93873,16.969 10.46386,-1.1078 18.04321,-10.48035 16.94457,-20.94423 -1.0315,-9.8114 -9.32129,-17.10937 -18.97339,-17.07824 z m -51.55517,60.1593 c 4.9414,6.19324 10.96557,11.45141 17.74047,15.50597 0,0 1.82984,17.38038 1.82984,17.38038 0,0 -62.73071,86.35742 -62.73071,86.35742 8.56934,14.60693 8.25927,33.52783 -2.33521,48.10792 -14.27368,19.64355 -41.79322,23.99413 -61.4331,9.71678 -19.64662,-14.2749 -23.99598,-41.76757 -9.71742,-61.41417 10.58899,-14.58375 28.47595,-20.73731 45.02992,-17.09961 0,0 71.61621,-98.55469 71.61621,-98.55469 z m -237.87964,20.2716 c 7.38769,2.89795 15.24048,4.42566 23.14514,4.56177 0,0 10.27282,14.13147 10.27282,14.13147 0,0 -11.17615,106.14318 -11.17615,106.14318 14.7406,8.37403 23.91114,24.92677 22.03187,42.86378 -2.54578,24.14062 -24.16687,41.66747 -48.31727,39.12109 -24.151609,-2.53907 -41.666247,-24.16504 -39.125972,-48.31543 1.878663,-17.92969 14.293825,-32.20215 30.444952,-37.32177 0,0 12.72461,-121.18409 12.72461,-121.18409 z m 156.56494,102.16065 c -5.80323,0.083 -11.50696,2.81494 -15.18066,7.87354 -6.18409,8.5083 -4.29993,20.4248 4.21508,26.60888 8.5144,6.18408 20.41748,4.29688 26.60645,-4.21387 6.1853,-8.51563 4.30542,-20.42724 -4.21021,-26.61133 -3.45702,-2.51221 -7.46216,-3.7085 -11.43066,-3.65722 z m -155.95825,41.88476 c -9.65638,-0.039 -17.96693,7.24365 -18.99841,17.05811 -1.09803,10.46143 6.49413,19.83398 16.96411,20.94238 10.4602,1.09619 19.81567,-6.50146 20.91369,-16.96533 1.1023,-10.46387 -6.47034,-19.84375 -16.93969,-20.9375 -0.65125,-0.0756 -1.29273,-0.0976 -1.9397,-0.0976 z m 312.40234,0 c -0.64087,0 -1.28784,0.022 -1.93969,0.0976 -10.46998,1.09375 -18.06764,10.47362 -16.96411,20.9375 1.10228,10.46386 10.47362,18.06151 20.9375,16.96532 10.4663,-1.1084 18.06762,-10.48095 16.96532,-20.94237 -1.03271,-9.81447 -9.34204,-17.09718 -18.99902,-17.05812 z" />
    <g
       id="g2876"
       style="fill:url(#linearGradient3673);fill-opacity:1">
      <path
         d="m 61.420593,989.91286 c 0,0 5.759888,0 5.759888,0 0,0 4.08875,-38.88184 4.08875,-38.88184 0,0 21.783437,29.97926 21.783437,29.97926 0,0 21.802372,-30.00733 21.802372,-30.00733 0,0 4.08874,38.90991 4.08874,38.90991 0,0 5.76355,0 5.76355,0 0,0 -5.1062,-48.56201 -5.1062,-48.56201 0,0 -5.75989,0 -5.75989,0 0,0 -20.788572,29.91455 -20.788572,29.91455 0,0 -21.734,-29.91455 -21.734,-29.91455 0,0 -4.79615,0 -4.79615,0"
         style="fill:url(#linearGradient3673);fill-opacity:1;fill-rule:nonzero;stroke:none"
         id="path2832" />
      <path
         d="m 169.34479,939.83351 c -14.18946,0 -25.73303,11.54785 -25.73303,25.7373 0,14.18824 11.54357,25.73609 25.73303,25.73609 14.19433,0 25.73669,-11.54785 25.73669,-25.73609 0,-14.18945 -11.54236,-25.7373 -25.73669,-25.7373 z m 20.00793,25.7373 c 0,11.02905 -8.974,20.00733 -20.00793,20.00733 -11.02966,0 -20.00793,-8.97828 -20.00793,-20.00733 0,-11.03394 8.97827,-20.00854 20.00793,-20.00854 11.03393,0 20.00793,8.9746 20.00793,20.00854 z"
         style="fill:url(#linearGradient3673);fill-opacity:1;fill-rule:nonzero;stroke:none"
         id="path2834" />
      <path
         d="m 216.39191,989.91286 c 0,0 5.72937,0 5.72937,0 0,0 0,-39.39331 0,-39.39331 0,0 35.48218,39.39331 35.48218,39.39331 0,0 5.1416,0 5.1416,0 0,0 0,-48.56201 0,-48.56201 0,0 -5.73059,0 -5.73059,0 0,0 0,39.34693 0,39.34693 0,0 -35.43945,-39.34693 -35.43945,-39.34693 0,0 -5.18311,0 -5.18311,0"
         style="fill:url(#linearGradient3673);fill-opacity:1;fill-rule:nonzero;stroke:none"
         id="path2836" />
      <path
         d="m 283.93829,947.08205 c 0,0 17.20154,0 17.20154,0 0,0 0,42.83081 0,42.83081 0,0 5.72754,0 5.72754,0 0,0 0,-42.83081 0,-42.83081 0,0 17.20092,0 17.20092,0 0,0 0,-5.7312 0,-5.7312 0,0 -40.13,0 -40.13,0"
         style="fill:url(#linearGradient3673);fill-opacity:1;fill-rule:nonzero;stroke:none"
         id="path2838" />
      <path
         d="m 353.83026,941.34719 c 0,0 -24.68262,48.56567 -24.68262,48.56567 0,0 6.427,0 6.427,0 0,0 7.71852,-15.19043 7.71852,-15.19043 0,0 26.88353,0 26.88353,0 0,0 7.71973,15.19043 7.71973,15.19043 0,0 6.43434,0 6.43434,0 0,0 -24.69483,-48.56567 -24.69483,-48.56567 0,0 -3.05176,0 -3.05176,0 0,0 -2.75391,0 -2.75391,0 z m 2.9065,6.92871 c 0,0 10.52368,20.72021 10.52368,20.72021 0,0 -21.05225,0 -21.05225,0 0,0 10.52857,-20.72021 10.52857,-20.72021 z"
         style="fill:url(#linearGradient3673);fill-opacity:1;fill-rule:nonzero;stroke:none"
         id="path2840" />
      <path
         d="m 422.88544,939.82862 c -14.19067,0 -25.74341,11.55274 -25.74341,25.74219 0,14.1919 11.55274,25.73243 25.74341,25.73243 14.17114,0 25.7019,-11.50513 25.73242,-25.66773 0,0 -2.97974,0 -2.97974,0 0,0 -2.74536,0 -2.74536,0 0,0 -15.75683,0 -15.75683,0 0,0 0,5.72877 0,5.72877 0,0 14.89868,0 14.89868,0 -2.48902,8.21654 -10.12573,14.21386 -19.14917,14.21386 -11.0315,0 -20.00611,-8.97339 -20.00611,-20.00733 0,-11.02905 8.97461,-20.00487 20.00611,-20.00487 7.87842,0 14.69604,4.57397 17.95654,11.20971 0,0 5.14526,-2.54516 5.14526,-2.54516 -4.198,-8.5254 -12.97607,-14.40186 -23.1018,-14.40186 z"
         style="fill:url(#linearGradient3673);fill-opacity:1;fill-rule:nonzero;stroke:none"
         id="path2842" />
      <path
         d="m 469.96063,989.91286 c 0,0 35.91553,0 35.91553,0 0,0 0,-5.72876 0,-5.72876 0,0 -30.18554,0 -30.18554,0 0,0 0,-17.21436 0,-17.21436 0,0 30.18554,0 30.18554,0 0,0 0,-5.72875 0,-5.72875 0,0 -30.18554,0 -30.18554,0 0,0 0,-14.15894 0,-14.15894 0,0 30.18554,0 30.18554,0 0,0 0,-5.7312 0,-5.7312 0,0 -35.91553,0 -35.91553,0"
         style="fill:url(#linearGradient3673);fill-opacity:1;fill-rule:nonzero;stroke:none"
         id="path2844" />
    </g>
  </g>
</svg>
